<?xml version="1.0" standalone="no"?>
<!DOCTYPE svg PUBLIC "-//W3C//DTD SVG 20010904//EN"
 "http://www.w3.org/TR/2001/REC-SVG-20010904/DTD/svg10.dtd">
<svg version="1.0" xmlns="http://www.w3.org/2000/svg"
 width="289.000000pt" height="342.000000pt" viewBox="0 0 289.000000 342.000000"
 preserveAspectRatio="xMidYMid meet">
<metadata>
Created by potrace 1.14, written by Peter Selinger 2001-2017
</metadata>
<g transform="translate(0.000000,342.000000) scale(0.100000,-0.100000)"
fill="#000000" stroke="none">
<path d="M1536 3404 c-21 -7 -58 -32 -82 -54 -26 -23 -53 -40 -68 -40 -30 0
-42 -15 -49 -63 -3 -20 -15 -51 -27 -67 -18 -25 -19 -33 -9 -52 16 -30 39
-117 39 -150 0 -24 -4 -28 -28 -28 -15 0 -42 4 -60 9 -41 12 -71 2 -124 -43
-22 -19 -79 -51 -126 -71 -48 -21 -101 -46 -118 -56 -17 -10 -42 -19 -54 -19
-13 0 -95 36 -184 79 -89 44 -188 92 -221 107 -81 36 -97 51 -90 85 4 15 1 30
-5 34 -6 4 -8 15 -5 24 3 10 -3 29 -13 42 l-19 23 -17 -32 c-26 -50 -47 -56
-102 -27 -36 19 -50 22 -61 14 -11 -10 -11 -15 1 -33 13 -20 12 -22 -7 -23
-11 -1 -27 -9 -35 -17 -13 -13 -12 -17 11 -38 17 -16 29 -40 33 -69 4 -24 11
-50 17 -56 11 -15 53 -17 62 -3 10 16 83 12 113 -7 15 -9 43 -29 63 -45 20
-15 54 -37 77 -50 92 -52 160 -94 212 -132 69 -51 128 -58 224 -27 36 11 72
21 80 21 9 0 18 -21 26 -62 21 -106 23 -128 12 -141 -5 -6 -15 -57 -21 -112
-16 -125 -32 -175 -72 -227 -32 -40 -48 -84 -75 -203 -7 -33 -21 -80 -30 -105
-38 -105 -51 -218 -52 -460 -1 -129 -4 -256 -7 -281 -7 -46 -6 -47 40 -82 48
-37 113 -113 202 -239 82 -114 173 -260 180 -288 3 -14 15 -41 25 -61 10 -20
23 -65 29 -100 9 -55 7 -71 -11 -124 -12 -33 -26 -70 -32 -81 -27 -55 20 -81
79 -44 43 26 91 103 99 160 9 57 25 96 70 167 l36 56 -60 56 c-33 31 -68 74
-77 96 -46 108 -105 258 -105 266 0 27 -117 194 -166 236 -61 53 -66 71 -35
137 21 46 39 109 43 146 2 20 9 26 33 28 26 2 43 -9 118 -81 48 -46 87 -88 87
-93 0 -5 38 -49 85 -99 47 -49 85 -93 85 -96 0 -13 112 -80 153 -91 42 -11 46
-10 119 30 42 23 82 49 89 58 37 44 191 107 384 157 33 8 116 30 185 49 106
29 132 33 175 26 93 -16 147 -45 215 -113 35 -36 67 -65 72 -65 17 0 29 55 23
102 -7 47 -32 91 -104 182 -22 27 -45 61 -53 75 -7 14 -21 40 -31 58 l-19 32
-26 -19 c-17 -12 -77 -30 -157 -45 -71 -14 -164 -34 -205 -45 -41 -11 -100
-26 -130 -33 -328 -84 -374 -103 -455 -186 -38 -38 -55 -34 -55 12 0 18 -15
58 -33 89 -18 31 -49 87 -70 124 -21 37 -70 115 -109 173 l-71 106 -8 95 c-4
52 -13 118 -21 145 -13 46 -12 55 9 119 34 102 101 235 140 279 19 21 49 62
67 90 68 105 105 113 146 32 48 -93 103 -190 127 -223 32 -43 60 -126 68 -205
l7 -65 -39 -25 c-72 -45 -134 -137 -115 -168 7 -11 7 -20 0 -27 -15 -15 -2
-42 18 -42 10 0 27 8 38 18 17 15 17 13 -3 -16 -42 -60 -7 -84 47 -31 l32 31
18 -22 c16 -20 19 -20 31 -6 12 14 22 46 37 116 3 13 9 29 13 35 11 13 38 104
40 130 0 11 5 65 9 120 9 99 9 100 -17 135 -48 65 -213 403 -244 502 -3 9 -31
33 -62 53 -111 74 -172 202 -111 234 13 8 29 10 35 7 19 -12 110 36 150 79 32
35 41 53 46 96 4 32 2 66 -4 82 -18 47 -84 118 -133 143 -53 27 -95 29 -152 8z"/>
</g>
</svg>
