<?xml version="1.0" standalone="no"?>
<!DOCTYPE svg PUBLIC "-//W3C//DTD SVG 20010904//EN"
 "http://www.w3.org/TR/2001/REC-SVG-20010904/DTD/svg10.dtd">
<svg version="1.0" xmlns="http://www.w3.org/2000/svg"
 width="694.000000pt" height="1836.000000pt" viewBox="0 0 694.000000 1836.000000"
 preserveAspectRatio="xMidYMid meet">
<metadata>
Created by potrace 1.14, written by Peter Selinger 2001-2017
</metadata>
<g transform="translate(0.000000,1836.000000) scale(0.100000,-0.100000)"
fill="#000000" stroke="none">
<path d="M2403 18354 c-35 -8 -41 -23 -58 -144 -10 -63 -19 -119 -22 -123 -3
-5 -7 -68 -9 -140 -3 -73 -12 -175 -21 -227 -10 -52 -17 -133 -18 -180 0 -53
-6 -94 -14 -110 -10 -17 -14 -61 -13 -155 0 -71 -5 -166 -12 -210 -13 -80 -13
-366 -1 -605 10 -214 16 -374 21 -555 2 -99 7 -259 10 -355 4 -96 8 -249 9
-340 2 -91 6 -232 10 -315 3 -82 8 -242 9 -355 7 -497 17 -843 27 -944 6 -60
10 -177 9 -260 -1 -132 5 -351 11 -411 2 -11 2 -40 1 -64 -2 -38 -4 -42 -17
-31 -9 7 -14 18 -12 24 3 6 -1 18 -8 26 -7 8 -20 69 -29 135 -9 66 -19 134
-22 150 -3 17 -10 75 -15 130 -4 55 -12 120 -17 145 -5 25 -15 79 -21 120 -7
41 -19 104 -27 140 -8 36 -21 119 -29 185 -8 66 -21 145 -30 175 -8 30 -14 71
-13 90 1 31 -11 106 -30 180 -3 14 -7 41 -8 60 -4 60 -50 349 -63 395 -5 17
-14 71 -21 120 -17 133 -39 269 -61 367 -10 47 -21 117 -25 155 -3 37 -17 124
-30 191 -13 68 -26 138 -28 155 -3 18 -17 91 -31 162 -38 180 -45 218 -55 311
-9 85 -39 264 -45 274 -12 19 -105 406 -105 437 -1 21 -7 56 -15 78 -8 22 -15
50 -15 61 0 17 -9 24 -39 32 -38 9 -105 3 -129 -12 -15 -9 -32 -101 -31 -171
3 -135 -11 -426 -21 -444 -5 -11 -10 -57 -10 -103 0 -46 1 -130 1 -188 0 -58
-5 -135 -12 -170 -7 -36 -13 -114 -15 -175 -8 -272 -10 -303 -27 -329 -10 -14
-22 -26 -28 -26 -5 0 -27 -11 -47 -25 -20 -14 -45 -25 -54 -25 -10 0 -18 -4
-18 -10 0 -5 14 -10 30 -10 37 0 52 -27 26 -46 -10 -7 -30 -45 -45 -86 -23
-64 -30 -73 -54 -76 -18 -2 -27 -9 -27 -21 0 -10 -3 -33 -6 -50 l-6 -31 75 0
c79 0 87 -4 93 -48 2 -15 6 -41 10 -59 7 -34 1 -38 -66 -45 -23 -3 -25 -8 -30
-68 -4 -55 -8 -65 -25 -68 -11 -2 -24 -7 -28 -12 -9 -8 33 -83 53 -95 7 -4 20
-21 31 -39 17 -29 23 -31 73 -31 39 0 62 -6 81 -20 l27 -20 3 -157 c2 -86 8
-165 13 -175 5 -10 6 -27 2 -38 -4 -11 -2 -38 4 -60 11 -35 12 -64 7 -112 -1
-8 -10 -9 -29 -3 -49 14 -60 -1 -56 -77 2 -38 6 -117 9 -176 3 -60 10 -117 15
-127 8 -14 11 -76 11 -193 0 -10 -6 -26 -13 -34 -16 -20 -12 -50 13 -82 23
-29 24 -54 4 -71 -8 -7 -15 -25 -15 -40 0 -16 7 -30 15 -34 19 -7 19 -42 0
-50 -19 -7 -20 -66 -1 -66 7 0 20 -7 27 -16 11 -14 11 -18 -4 -29 -21 -15 -22
-68 -2 -85 8 -7 15 -23 15 -35 0 -18 -7 -25 -30 -30 -16 -4 -30 -7 -30 -8 0
-1 7 -24 15 -51 14 -44 13 -51 -1 -67 -14 -15 -12 -21 18 -64 33 -46 33 -48
34 -168 2 -174 13 -463 20 -521 3 -27 14 -86 25 -130 10 -45 19 -117 19 -161
0 -44 7 -112 15 -150 8 -39 15 -109 15 -157 0 -48 7 -113 15 -145 23 -89 19
-133 -17 -205 -30 -58 -38 -66 -98 -95 -50 -24 -87 -54 -164 -133 -93 -97
-100 -107 -118 -174 -14 -52 -19 -98 -18 -172 1 -78 -2 -109 -15 -134 -17 -32
-128 -175 -145 -185 -8 -5 -72 -101 -114 -170 -10 -16 -30 -42 -44 -57 -13
-15 -33 -49 -42 -75 -10 -26 -24 -66 -33 -88 -9 -22 -18 -52 -21 -67 -3 -14
-19 -39 -34 -55 -51 -50 -82 -131 -112 -288 -11 -55 -35 -156 -55 -225 -19
-69 -42 -165 -50 -215 -25 -143 -52 -229 -100 -321 -36 -69 -45 -95 -45 -137
0 -29 -9 -70 -19 -92 -33 -74 -112 -189 -171 -250 -32 -33 -60 -71 -62 -85 -7
-39 18 -198 41 -265 111 -319 151 -481 151 -607 0 -50 5 -67 30 -103 69 -101
160 -336 160 -415 0 -59 92 -300 204 -531 57 -120 90 -174 138 -230 94 -110
342 -347 433 -414 44 -33 103 -80 130 -106 50 -46 168 -130 255 -181 65 -37
264 -257 296 -327 14 -31 37 -67 50 -81 34 -37 65 -113 75 -188 8 -60 50 -253
67 -308 8 -25 214 -219 257 -242 23 -13 58 -17 145 -17 139 0 146 -3 252 -112
60 -62 78 -87 83 -119 4 -21 18 -84 30 -139 13 -55 26 -131 30 -170 4 -38 20
-119 35 -180 15 -60 30 -132 34 -159 6 -49 12 -74 61 -237 14 -48 25 -107 25
-130 0 -24 11 -97 25 -162 14 -64 25 -134 25 -155 0 -21 7 -58 15 -83 8 -24
19 -78 24 -119 5 -41 18 -122 30 -180 12 -58 21 -118 21 -133 0 -16 4 -36 10
-46 9 -18 37 -175 49 -283 4 -31 14 -65 23 -75 10 -10 24 -35 33 -56 8 -20 19
-37 24 -37 6 0 19 14 31 30 27 38 39 118 48 307 7 136 8 144 33 169 34 33 94
42 138 19 49 -25 73 -87 70 -178 -2 -54 1 -78 14 -98 9 -14 22 -62 27 -107 6
-44 17 -100 26 -124 27 -77 54 -228 54 -307 0 -45 7 -97 16 -124 l16 -47 31
22 c41 30 106 31 137 3 25 -23 121 -149 139 -182 6 -12 11 -42 11 -66 0 -44 0
-44 41 -50 41 -5 73 -26 91 -61 13 -24 24 -92 48 -286 45 -375 39 -347 82
-385 44 -40 46 -41 91 -19 l34 16 7 117 c4 64 11 229 15 366 5 138 13 266 20
285 13 42 31 461 40 965 7 425 7 426 78 461 27 13 61 18 120 19 75 0 83 2 87
21 3 12 29 44 58 73 l53 51 0 117 c0 65 6 168 13 230 11 100 10 123 -8 226
-17 100 -18 143 -13 353 3 131 5 265 4 296 -2 70 7 88 75 155 39 39 55 62 59
90 4 21 13 56 21 78 8 23 14 62 14 88 0 57 18 103 59 155 17 21 38 64 46 97
22 84 40 107 175 234 91 86 120 119 120 138 0 28 76 227 122 316 16 32 61 93
101 135 40 42 90 101 112 130 22 29 75 78 119 110 124 90 149 115 230 236 52
77 79 127 85 159 4 25 18 60 29 79 12 18 32 54 46 79 36 66 93 117 159 141 45
16 66 31 88 62 52 71 127 206 135 239 3 18 15 54 25 80 11 26 19 66 19 88 0
22 7 56 15 76 8 19 15 65 15 102 0 43 7 80 19 107 10 23 22 61 26 85 4 24 16
67 25 94 10 28 30 93 44 145 29 110 35 249 22 515 -4 88 -7 234 -6 325 1 100
-5 214 -14 290 -9 68 -16 165 -16 215 0 102 -12 152 -64 280 -81 197 -263 578
-306 640 -15 22 -35 58 -44 78 -8 21 -33 58 -54 82 -21 24 -50 66 -64 92 -14
26 -32 62 -41 78 -8 17 -62 125 -118 240 -102 207 -150 282 -300 470 -80 100
-201 283 -216 328 -7 21 -20 86 -29 145 -11 75 -26 130 -50 183 -19 42 -34 82
-34 88 0 25 -88 105 -145 133 -33 16 -86 53 -118 83 -47 44 -65 55 -93 55 -40
0 -57 24 -48 69 6 26 3 31 -13 31 -11 0 -28 8 -37 19 -14 16 -17 50 -20 252
-2 129 -9 286 -15 349 -6 63 -16 198 -22 300 -6 102 -17 223 -25 270 -8 47
-14 103 -14 125 0 22 -8 70 -17 107 -15 57 -15 70 -4 92 8 14 11 35 7 48 -4
13 -9 95 -12 183 -3 88 -9 176 -14 195 -5 19 -12 69 -16 110 -4 41 -13 88 -21
104 -22 42 -47 242 -48 371 0 91 -3 115 -19 138 -16 24 -17 31 -6 52 12 22 11
28 -5 45 -14 16 -16 23 -7 32 17 17 15 48 -3 55 -12 4 -14 15 -10 47 5 32 3
45 -9 55 -22 19 -20 38 6 52 l22 12 -27 14 c-15 7 -27 19 -27 26 -5 119 -30
381 -38 389 -7 6 -37 11 -61 9 -11 -1 -13 -38 -10 -203 3 -156 0 -209 -10
-227 -11 -20 -11 -25 0 -32 8 -5 17 -9 22 -9 15 0 6 -51 -13 -67 -18 -16 -18
-18 -3 -35 13 -14 14 -21 5 -30 -15 -15 -15 -51 0 -66 10 -10 8 -19 -6 -43
-18 -30 -18 -30 3 -36 24 -6 29 -41 6 -48 -49 -16 -48 -15 -35 -30 8 -9 10
-27 6 -47 -4 -20 -1 -37 8 -47 7 -9 19 -32 25 -51 13 -42 11 -279 -3 -298 -5
-7 -9 -58 -8 -112 1 -54 -2 -101 -6 -104 -21 -13 -152 -25 -322 -31 -102 -3
-207 -10 -235 -15 -27 -5 -82 -9 -122 -9 -39 1 -76 -1 -81 -5 -5 -3 -18 1 -29
9 -23 16 -39 87 -48 212 -3 45 -12 97 -20 117 -8 19 -15 62 -15 94 0 32 -9
103 -20 157 -11 55 -25 125 -31 155 -6 30 -15 73 -19 95 -5 22 -12 72 -16 110
-6 66 -19 104 -63 183 l-19 32 -14 -22 c-29 -47 -38 -165 -27 -377 6 -111 7
-243 4 -294 -4 -51 -9 -181 -12 -289 -4 -185 -5 -197 -24 -203 -11 -4 -33 -3
-50 0 -27 6 -30 10 -24 36 4 18 3 29 -4 29 -6 0 -11 7 -11 16 0 13 3 14 14 5
11 -9 15 -7 19 8 6 23 0 31 -24 31 -14 0 -19 12 -24 58 -7 65 -24 107 -45 107
-12 0 -14 -16 -11 -89 3 -79 2 -88 -11 -75 -26 26 -36 53 -48 134 -6 44 -16
96 -22 115 -6 19 -12 60 -14 90 -1 30 -9 79 -17 108 -9 29 -16 88 -16 131 0
43 -8 119 -16 170 -15 87 -15 94 1 112 9 10 23 19 31 19 15 0 17 28 3 64 -9
25 -17 106 -25 271 -3 44 -11 116 -19 160 -39 213 -56 323 -56 357 0 20 -4 39
-9 42 -8 5 -20 81 -26 166 -7 112 -26 244 -49 354 -14 65 -26 132 -26 150 0
17 -9 54 -20 83 -14 37 -18 65 -13 100 3 32 0 65 -11 96 -8 26 -16 84 -17 129
-1 46 -10 112 -19 148 -23 83 -44 251 -36 278 4 12 2 40 -5 64 -6 24 -15 66
-19 93 -4 28 -18 75 -30 105 -12 30 -26 82 -32 115 -5 33 -13 69 -18 80 -16
33 -60 167 -70 210 -5 22 -12 54 -16 70 -19 88 -69 269 -90 328 -13 38 -22 72
-19 77 3 4 -4 33 -15 65 -11 31 -27 87 -36 123 -23 92 -58 167 -86 186 -25 16
-109 27 -145 20z m2282 -4916 c3 -2 6 -83 9 -180 4 -130 9 -185 20 -206 14
-28 15 -45 18 -288 0 -39 -5 -81 -11 -92 -6 -11 -11 -34 -11 -51 0 -25 -4 -31
-21 -31 -19 0 -21 -5 -18 -62 2 -35 2 -86 1 -114 l-2 -51 -52 -11 c-29 -6 -87
-16 -128 -21 -41 -6 -134 -20 -206 -32 -72 -11 -149 -19 -170 -17 l-39 3 -12
65 c-11 58 -34 223 -49 338 -3 24 -12 62 -20 85 -8 23 -19 86 -25 141 -6 55
-17 132 -25 171 -8 38 -19 102 -25 140 -5 39 -13 93 -17 121 l-8 51 192 12
c106 7 203 10 216 6 19 -5 20 -4 8 5 -13 10 -12 11 5 7 11 -2 81 2 155 9 122
11 205 12 215 2z m-1086 -128 c7 -132 6 -193 -4 -197 -6 -2 -9 -35 -7 -83 2
-44 1 -88 -2 -97 -6 -15 -10 -13 -26 12 -13 21 -20 60 -25 127 -6 85 -5 99 9
104 23 9 20 51 -5 65 -18 9 -21 17 -16 53 4 26 2 47 -5 54 -8 8 -8 13 3 16 8
2 21 7 29 10 37 12 45 2 49 -64z m1070 -1080 c1 -49 -3 -87 -11 -99 -9 -16
-10 -30 0 -68 7 -26 13 -104 13 -173 0 -69 4 -132 8 -139 5 -7 7 -21 4 -30 -4
-15 -18 -17 -121 -14 -64 2 -126 6 -137 9 -11 2 -37 27 -59 55 -32 41 -43 49
-62 45 -48 -12 -67 7 -113 113 -24 55 -49 105 -56 111 -7 6 -16 42 -20 80 -4
39 -11 70 -16 70 -17 0 -9 29 9 34 78 21 164 37 256 46 60 6 114 14 119 17 11
6 103 20 153 22 l31 1 2 -80z"/>
</g>
</svg>
